<svg version="1.1" viewBox="0.0 0.0 256.0 256.0" fill="none" stroke="none" stroke-linecap="square" stroke-miterlimit="10" xmlns:xlink="http://www.w3.org/1999/xlink" xmlns="http://www.w3.org/2000/svg"><clipPath id="g1ea41958102_0_0.0"><path d="m0 0l256.0 0l0 256.0l-256.0 0l0 -256.0z" clip-rule="nonzero"/></clipPath><g clip-path="url(#g1ea41958102_0_0.0)"><path fill="#ffffff" d="m0 0l256.0 0l0 256.0l-256.0 0z" fillRule="evenodd"/><path fill="#4f46e5" d="m0 -1.0498687E-6l256.0 0l0 256.0l-256.0 0z" fillRule="evenodd"/><path stroke="#4f46e5" stroke-width="1.0" stroke-linejoin="round" stroke-linecap="butt" d="m0 -1.0498687E-6l256.0 0l0 256.0l-256.0 0z" fillRule="evenodd"/><path fill="#ffffff" d="m131.33997 192.19376q-12.953125 0 -24.234375 -4.875q-11.28125 -4.875 -19.6875 -13.59375q-8.390625 -8.71875 -13.125 -20.390625q-4.71875 -11.6875 -4.71875 -25.296875q0 -13.4375 4.71875 -25.03125q4.734375 -11.609375 13.125 -20.328125q8.40625 -8.71875 19.59375 -13.671875q11.203125 -4.96875 24.328125 -4.96875q12.3125 0 21.1875 3.203125q8.890625 3.203125 17.859375 10.5625q1.265625 0.953125 1.984375 2.0q0.734375 1.03125 0.96875 2.078125q0.234375 1.03125 0.234375 2.484375q0 3.03125 -2.15625 5.03125q-2.15625 2.0 -5.203125 2.25q-3.03125 0.234375 -5.921875 -2.0q-5.90625 -5.125 -12.234375 -7.84375q-6.3125 -2.71875 -16.71875 -2.71875q-9.4375 0 -17.765625 3.84375q-8.3125 3.828125 -14.640625 10.546875q-6.3125 6.71875 -9.84375 15.609375q-3.515625 8.875 -3.515625 18.953125q0 10.25 3.515625 19.125q3.53125 8.875 9.84375 15.59375q6.328125 6.71875 14.640625 10.484375q8.328125 3.765625 17.765625 3.765625q8.15625 0 15.4375 -2.796875q7.28125 -2.8125 14.0 -7.765625q2.875 -2.078125 5.671875 -1.84375q2.8125 0.234375 4.734375 2.234375q1.921875 2.0 1.921875 5.53125q0 1.59375 -0.640625 3.125q-0.640625 1.515625 -1.921875 2.796875q-8.640625 6.875 -18.484375 10.390625q-9.84375 3.515625 -20.71875 3.515625z" fillRule="nonzero"/><path fill="#ffffff" d="m129.5853 102.29401l0 0c0 -1.1451797 0.92836 -2.073532 2.073532 -2.073532l46.467117 0c0.54992676 0 1.0773468 0.21846008 1.4662018 0.6073227c0.38887024 0.3888626 0.6073303 0.916275 0.6073303 1.4662094l0 8.293877c0 1.1451797 -0.92836 2.073532 -2.073532 2.073532l-46.467117 0c-1.1451721 0 -2.073532 -0.92835236 -2.073532 -2.073532z" fillRule="evenodd"/><path stroke="#ffffff" stroke-width="1.0" stroke-linejoin="round" stroke-linecap="butt" d="m129.5853 102.29401l0 0c0 -1.1451797 0.92836 -2.073532 2.073532 -2.073532l46.467117 0c0.54992676 0 1.0773468 0.21846008 1.4662018 0.6073227c0.38887024 0.3888626 0.6073303 0.916275 0.6073303 1.4662094l0 8.293877c0 1.1451797 -0.92836 2.073532 -2.073532 2.073532l-46.467117 0c-1.1451721 0 -2.073532 -0.92835236 -2.073532 -2.073532z" fillRule="evenodd"/><path fill="#ffffff" d="m107.77428 123.85306l0 0c0 -1.1451797 0.92835236 -2.073532 2.073532 -2.073532l56.703323 0c0.549942 0 1.0773468 0.21846008 1.466217 0.6073227c0.38885498 0.3888626 0.60731506 0.916275 0.60731506 1.4662094l0 8.293884c0 1.1451721 -0.9283447 2.073532 -2.073532 2.073532l-56.703323 0l0 0c-1.1451797 0 -2.073532 -0.92836 -2.073532 -2.073532z" fillRule="evenodd"/><path stroke="#ffffff" stroke-width="1.0" stroke-linejoin="round" stroke-linecap="butt" d="m107.77428 123.85306l0 0c0 -1.1451797 0.92835236 -2.073532 2.073532 -2.073532l56.703323 0c0.549942 0 1.0773468 0.21846008 1.466217 0.6073227c0.38885498 0.3888626 0.60731506 0.916275 0.60731506 1.4662094l0 8.293884c0 1.1451721 -0.9283447 2.073532 -2.073532 2.073532l-56.703323 0l0 0c-1.1451797 0 -2.073532 -0.92836 -2.073532 -2.073532z" fillRule="evenodd"/><path fill="#ffffff" d="m146.87665 145.41211l0 0c0 -1.1451721 0.9283447 -2.073532 2.073532 -2.073532l29.175766 0c0.54992676 0 1.0773468 0.21846008 1.4662018 0.6073303c0.38887024 0.38885498 0.6073303 0.916275 0.6073303 1.4662018l0 8.293884c0 1.1451874 -0.92836 2.073532 -2.073532 2.073532l-29.175766 0l0 0c-1.1451874 0 -2.073532 -0.9283447 -2.073532 -2.073532z" fillRule="evenodd"/><path stroke="#ffffff" stroke-width="1.0" stroke-linejoin="round" stroke-linecap="butt" d="m146.87665 145.41211l0 0c0 -1.1451721 0.9283447 -2.073532 2.073532 -2.073532l29.175766 0c0.54992676 0 1.0773468 0.21846008 1.4662018 0.6073303c0.38887024 0.38885498 0.6073303 0.916275 0.6073303 1.4662018l0 8.293884c0 1.1451874 -0.92836 2.073532 -2.073532 2.073532l-29.175766 0l0 0c-1.1451874 0 -2.073532 -0.9283447 -2.073532 -2.073532z" fillRule="evenodd"/><path fill="#ffffff" d="m172.77531 110.60389l5.8112183 -5.81089l3.8496857 9.660744z" fillRule="evenodd"/><path stroke="#ffffff" stroke-width="1.0" stroke-linejoin="round" stroke-linecap="butt" d="m172.77531 110.60389l5.8112183 -5.81089l3.8496857 9.660744z" fillRule="evenodd"/><path fill="#ffffff" d="m172.77531 154.01859l5.8112183 -5.8108826l3.8496857 9.660736z" fillRule="evenodd"/><path stroke="#ffffff" stroke-width="1.0" stroke-linejoin="round" stroke-linecap="butt" d="m172.77531 154.01859l5.8112183 -5.8108826l3.8496857 9.660736z" fillRule="evenodd"/></g></svg>